# xmcd
#
# Track frame offsets:
#	150
#	14926
#	37129
#	54726
#	71235
#	95478
#	110784
#	130121
#	148389
#	169243
#	188285
#	217903
#
# Disc length: 3078 seconds
#
# Revision: 1
# Processed by: cddbd v1.5.2PL0 Copyright (c) Steve Scherf et al.
# Submitted via: audiograbber 1.83.01
#
DISCID=be0c040c
DTITLE=Ana Popovic - Unconditional
DYEAR=2011
DGENRE=Blues
TTITLE0=Fearless Blues
TTITLE1=Count Me In
TTITLE2=Unconditional
TTITLE3=Reset Rewind
TTITLE4=Slideshow
TTITLE5=Business As Usual
TTITLE6=Your Love Ain't Real
TTITLE7=Work Song
TTITLE8=Summer Rain
TTITLE9=Voodoo Woman
TTITLE10=One Room Country Shack
TTITLE11=Soulful Dress
EXTD=
EXTT0=
EXTT1=
EXTT2=
EXTT3=
EXTT4=
EXTT5=
EXTT6=
EXTT7=
EXTT8=
EXTT9=
EXTT10=
EXTT11=
PLAYORDER=
